<?xml version="1.0" encoding="utf-8"?>
<!-- Generator: Adobe Illustrator 15.0.0, SVG Export Plug-In . SVG Version: 6.00 Build 0)  -->
<!DOCTYPE svg PUBLIC "-//W3C//DTD SVG 1.1//EN" "http://www.w3.org/Graphics/SVG/1.1/DTD/svg11.dtd">
<svg version="1.1" id="Capa_1" xmlns="http://www.w3.org/2000/svg" xmlns:xlink="http://www.w3.org/1999/xlink" x="0px" y="0px"
	 width="512px" height="512px" viewBox="-207.938 -207.938 512 512" enable-background="new -207.938 -207.938 512 512"
	 xml:space="preserve">
<g>
	<path d="M165.375-186.499l-60.859-0.098c-68.375,0-112.563,45.334-112.563,115.501v53.251h-61.19c-5.288,0-9.569,4.287-9.569,9.574
		v77.159c0,5.287,4.287,9.569,9.569,9.569h61.19V273.15c0,5.288,4.282,9.569,9.569,9.569h79.841c5.283,0,9.564-4.286,9.564-9.569
		V78.458h71.549c5.293,0,9.574-4.282,9.574-9.569l0.029-77.159c0-2.539-1.011-4.971-2.804-6.766
		c-1.793-1.797-4.234-2.809-6.771-2.809H90.927v-45.144c0-21.697,5.174-32.711,33.438-32.711l41-0.014
		c5.283,0,9.564-4.289,9.564-9.572v-71.644C174.93-182.208,170.649-186.49,165.375-186.499z"/>
</g>
</svg>
