<?xml version="1.0" encoding="utf-8"?>
<!-- Generator: Adobe Illustrator 15.0.0, SVG Export Plug-In . SVG Version: 6.00 Build 0)  -->
<!DOCTYPE svg PUBLIC "-//W3C//DTD SVG 1.1//EN" "http://www.w3.org/Graphics/SVG/1.1/DTD/svg11.dtd">
<svg version="1.1" id="Capa_1" xmlns="http://www.w3.org/2000/svg" xmlns:xlink="http://www.w3.org/1999/xlink" x="0px" y="0px"
	 width="512px" height="512px" viewBox="46.175 46.175 512 512" enable-background="new 46.175 46.175 512 512"
	 xml:space="preserve">
<g>
	<g id="google">
		<path d="M404.717,335.636l-23.747-17.271c-8.635-6.475-17.27-15.11-17.27-30.222c0-15.111,10.794-28.064,21.588-34.541
			c28.063-21.587,56.128-45.333,56.128-92.827c0-45.333-28.063-71.239-43.175-84.191h36.697l25.905-30.223H327.001
			c-94.986,0-142.479,60.445-142.479,125.208c0,49.651,38.858,103.621,107.938,103.621h17.271
			c-2.16,6.477-8.636,17.271-8.636,28.064c0,21.587,8.636,30.223,19.43,43.175c-30.224,2.158-86.351,8.636-127.368,34.54
			c-38.857,23.746-49.651,56.128-49.651,79.874c0,49.651,45.334,97.145,142.479,97.145c116.573,0,172.701-64.764,172.701-127.366
			C458.686,385.287,434.938,361.541,404.717,335.636z M240.65,139.188c0-47.493,28.063-69.081,58.287-69.081
			c56.127,0,86.351,75.557,86.351,118.732c0,56.128-45.334,66.922-62.604,66.922C268.714,255.762,240.65,188.84,240.65,139.188z
			 M318.366,527.766c-71.24,0-116.574-32.381-116.574-79.874s43.175-62.604,56.128-69.08c28.064-8.636,64.762-10.794,71.24-10.794
			c6.475,0,10.794,0,15.112,0c51.81,36.698,73.396,51.811,73.396,86.351C417.668,495.385,376.651,527.766,318.366,527.766z"/>
	</g>
</g>
</svg>
