<?xml version="1.0" encoding="utf-8"?>
<!-- Generator: Adobe Illustrator 16.0.0, SVG Export Plug-In . SVG Version: 6.00 Build 0)  -->
<!DOCTYPE svg PUBLIC "-//W3C//DTD SVG 1.1//EN" "http://www.w3.org/Graphics/SVG/1.1/DTD/svg11.dtd">
<svg version="1.1" id="Capa_1" xmlns="http://www.w3.org/2000/svg" xmlns:xlink="http://www.w3.org/1999/xlink" x="0px" y="0px"
	 width="512px" height="512px" viewBox="-231.584 -231.584 512 512" enable-background="new -231.584 -231.584 512 512"
	 xml:space="preserve">
<g>
	<g id="Layer_20_51_">
		<g>
			<polygon points="-67.729,110.44 2.025,110.44 2.025,126.525 -67.729,126.525 -67.729,139.789 151.649,139.789 151.649,126.525 
				70.328,126.525 70.328,110.44 160.772,110.44 160.772,73.691 -67.729,73.691 			"/>
			<polygon points="-128.479,-110.632 204.083,-110.632 204.083,22.298 232.571,22.298 232.571,-139.129 -156.972,-139.129 
				-156.972,-50.106 -128.479,-50.106 			"/>
			<path d="M-225.67,181.979h148.754V-41.164H-225.67V181.979z M-148.154,170.777c-3.951,0-7.167-3.201-7.167-7.162
				c0-3.951,3.216-7.162,7.167-7.162c3.966,0,7.162,3.201,7.162,7.162S-144.188,170.777-148.154,170.777z M-204.159-19.658h105.752
				l-0.01,164.629h-105.743V-19.658z"/>
			<path d="M170.875,30.87v157.091h103.627V30.87H170.875z M224.789,37.362c1.239,0,2.261,1.04,2.261,2.26
				c0,1.241-1.021,2.281-2.261,2.281c-1.261,0-2.28-1.04-2.28-2.281C222.509,38.382,223.528,37.362,224.789,37.362z M211.335,44.904
				h26.867v2.171h-26.867V44.904z M223.889,181.181c-2.98,0-5.361-2.422-5.361-5.382c0-2.961,2.381-5.361,5.361-5.361
				c2.961,0,5.382,2.4,5.382,5.361C229.271,178.759,226.85,181.181,223.889,181.181z M259.518,162.686
				c-24.256,0.13-61.616,0.229-73.639,0.13V54.797l73.639-0.011V162.686z"/>
		</g>
	</g>
</g>
</svg>
