<svg xmlns="http://www.w3.org/2000/svg" width="512" height="512"><path d="M255.752 5.25L19.682 88.328l37.306 309.288L256.003 507l200.039-110.864 37.292-309.278L255.752 5.25zm-.555 475.615l-177.06-98.204-31.965-276.61 209.024-74.505v449.319zm179.837-99.525L255.2 480.865V31.555l214.587 73.178-34.753 276.607z"/><g fill="#020100"><path d="M254.892 255.158h2.287l-2.399-.081h-43.052l43.444-103.051-.001-.004-.391-104.103-145.954 324.696 54.436-1.01 29.265-73.197h62.256l.138-.064h-.141z"/><path d="M254.787 47.927l-.005-.01-.002-.004v.006l.391 104.103.001.004 49.299 103.132h-49.579l-.112 43.186h.141l68.414.064 32.042 74.219 52.083.965z"/></g></svg>