<svg xmlns="http://www.w3.org/2000/svg" width="512" height="512" viewBox="-207.938 -207.938 512 512"><path d="M165.375-186.499l-60.859-.098c-68.375 0-112.563 45.334-112.563 115.501v53.251h-61.19c-5.288 0-9.569 4.287-9.569 9.574v77.159c0 5.287 4.287 9.569 9.569 9.569h61.19V273.15a9.566 9.566 0 0 0 9.569 9.569h79.841c5.283 0 9.564-4.286 9.564-9.569V78.458h71.549a9.567 9.567 0 0 0 9.574-9.569l.029-77.159a9.575 9.575 0 0 0-2.804-6.766 9.574 9.574 0 0 0-6.771-2.809H90.927v-45.144c0-21.697 5.174-32.711 33.438-32.711l41-.014c5.283 0 9.564-4.289 9.564-9.572v-71.644c.001-5.278-4.28-9.56-9.554-9.569z"/></svg>