<svg xmlns="http://www.w3.org/2000/svg" width="512" height="512"><path d="M492.417 234.239L278.187 20.017c-12.333-12.34-32.342-12.34-44.69 0l-44.481 44.489 56.429 56.431c13.115-4.43 28.154-1.457 38.604 8.996 10.513 10.518 13.459 25.685 8.917 38.847l54.39 54.384c13.161-4.537 28.336-1.604 38.849 8.922 14.686 14.682 14.686 38.479 0 53.174-14.694 14.689-38.489 14.689-53.189 0-11.045-11.055-13.777-27.288-8.177-40.896l-50.729-50.723v133.478a37.941 37.941 0 0 1 9.939 7.107c14.685 14.685 14.685 38.479 0 53.185-14.685 14.68-38.495 14.68-53.169 0-14.685-14.705-14.685-38.5 0-53.185a37.546 37.546 0 0 1 12.317-8.202V191.309a37.255 37.255 0 0 1-12.317-8.205c-11.123-11.118-13.798-27.445-8.093-41.105l-55.63-55.638-146.9 146.885c-12.338 12.351-12.338 32.359 0 44.703l214.241 214.22c12.333 12.338 32.336 12.338 44.69 0L492.417 278.94c12.343-12.343 12.343-32.363 0-44.701z"/></svg>