<svg xmlns="http://www.w3.org/2000/svg" width="512" height="512" viewBox="46.175 46.175 512 512"><path d="M404.717 335.636l-23.747-17.271c-8.635-6.475-17.27-15.11-17.27-30.222 0-15.111 10.794-28.064 21.588-34.541 28.063-21.587 56.128-45.333 56.128-92.827 0-45.333-28.063-71.239-43.175-84.191h36.697l25.905-30.223H327.001c-94.986 0-142.479 60.445-142.479 125.208 0 49.651 38.858 103.621 107.938 103.621h17.271c-2.16 6.477-8.636 17.271-8.636 28.064 0 21.587 8.636 30.223 19.43 43.175-30.224 2.158-86.351 8.636-127.368 34.54-38.857 23.746-49.651 56.128-49.651 79.874 0 49.651 45.334 97.145 142.479 97.145 116.573 0 172.701-64.764 172.701-127.366 0-45.335-23.748-69.081-53.969-94.986zM240.65 139.188c0-47.493 28.063-69.081 58.287-69.081 56.127 0 86.351 75.557 86.351 118.732 0 56.128-45.334 66.922-62.604 66.922-53.97.001-82.034-66.921-82.034-116.573zm77.716 388.578c-71.24 0-116.574-32.381-116.574-79.874s43.175-62.604 56.128-69.08c28.064-8.636 64.762-10.794 71.24-10.794h15.112c51.81 36.698 73.396 51.811 73.396 86.351 0 41.016-41.017 73.397-99.302 73.397z"/></svg>