<svg xmlns="http://www.w3.org/2000/svg" width="512" height="512"><path d="M419.239 176.766a337.317 337.317 0 0 0-16.246-5.121c.917-3.746 1.76-7.446 2.511-11.082 12.298-59.701 4.258-107.797-23.203-123.631-26.331-15.185-69.392.648-112.882 38.495a336.746 336.746 0 0 0-12.566 11.532 309.536 309.536 0 0 0-8.364-7.724c-45.58-40.469-91.264-57.524-118.697-41.643-26.306 15.228-34.095 60.442-23.024 117.022a337.608 337.608 0 0 0 3.732 16.72 332.192 332.192 0 0 0-18.68 5.873c-53.436 18.63-87.562 47.827-87.562 78.114 0 31.28 36.635 62.654 92.292 81.677a288.964 288.964 0 0 0 13.646 4.268 328.703 328.703 0 0 0-3.963 18.018c-10.557 55.599-2.313 99.744 23.922 114.874 27.099 15.628 72.578-.437 116.862-39.146a284.852 284.852 0 0 0 10.532-9.704 334.645 334.645 0 0 0 13.644 12.449c42.895 36.912 85.261 51.815 111.473 36.642 27.07-15.671 35.869-63.093 24.448-120.795a290.522 290.522 0 0 0-3.027-13.489 299.23 299.23 0 0 0 9.384-2.932c57.862-19.17 95.509-50.162 95.509-81.861-.001-30.397-35.229-59.792-89.741-78.556zM283.574 91.691c37.262-32.428 72.089-45.23 87.957-36.081 16.901 9.746 23.473 49.055 12.854 100.601a291.594 291.594 0 0 1-2.269 10.034c-20.938-4.832-43.677-8.427-67.485-10.66-13.868-19.75-28.24-37.704-42.667-53.248a317.977 317.977 0 0 1 11.61-10.646zM164.716 255.839a612.593 612.593 0 0 1 21.471-40.689l-.002.003a605.615 605.615 0 0 1 24.475-38.961 611.224 611.224 0 0 1 45.957-1.726c15.627 0 31.038.596 46.044 1.741a648.724 648.724 0 0 1 24.32 38.83c7.913 13.669 15.184 27.212 21.759 40.496-6.558 13.513-13.808 27.189-21.688 40.854-7.892 13.682-15.991 26.739-24.213 39.068a651.21 651.21 0 0 1-46.223 1.623c-15.706 0-30.984-.488-45.695-1.444a611.772 611.772 0 0 1-24.671-39.129h.002a606.57 606.57 0 0 1-21.536-40.666zm-11.432 25.351a636.176 636.176 0 0 0 14.307 26.114h.002a633.2 633.2 0 0 0 15.848 25.924c-16.535-1.846-32.121-4.346-46.517-7.478 4.456-14.392 9.949-29.347 16.36-44.56zm-.024-50.71c-6.278-14.891-11.65-29.534-16.038-43.673 14.399-3.223 29.754-5.858 45.756-7.855a630.34 630.34 0 0 0-15.47 25.427v.002a636.304 636.304 0 0 0-14.248 26.099zm192.47 76.677a685.29 685.29 0 0 0 14.636-26.741c6.747 15.376 12.435 30.253 16.95 44.399-14.633 3.34-30.435 6.026-47.083 8.025a752.793 752.793 0 0 0 15.497-25.683zm14.431-76.66a743.645 743.645 0 0 0-14.52-26.265 687.464 687.464 0 0 0-15.348-25.242c16.104 2.036 31.534 4.738 46.023 8.045-4.348 13.941-9.771 28.519-16.155 43.462zM256.859 117.756c9.944 10.775 19.904 22.804 29.699 35.856a635.083 635.083 0 0 0-29.941-.709c-9.98 0-19.901.238-29.71.696 9.805-12.931 19.85-24.945 29.952-35.843zM140.595 56.252c16.884-9.775 54.224 4.162 93.576 39.105a278.385 278.385 0 0 1 7.574 6.99c-14.664 15.746-29.154 33.672-42.995 53.208-23.737 2.2-46.461 5.734-67.352 10.467a315.954 315.954 0 0 1-3.47-15.549c-9.485-48.476-3.188-85.044 12.667-94.221zM115.98 320.496a262.799 262.799 0 0 1-12.458-3.902c-24.61-8.412-44.935-19.344-58.866-31.272-12.519-10.721-18.838-21.364-18.838-30 0-18.378 27.4-41.82 73.099-57.754a311.81 311.81 0 0 1 17.373-5.467c6.317 20.545 14.602 42.025 24.599 63.745-10.128 22.043-18.531 43.864-24.909 64.65zm116.847 98.281c-19.58 17.117-39.203 29.261-56.497 35.368-15.542 5.489-27.919 5.646-35.401 1.333-15.922-9.182-22.54-44.628-13.512-92.174a311.8 311.8 0 0 1 3.684-16.757c20.675 4.572 43.558 7.862 68.016 9.845 13.967 19.651 28.591 37.713 43.328 53.528-3.22 3.11-6.429 6.07-9.618 8.857zm24.627-24.372c-10.217-11.027-20.413-23.223-30.366-36.342 9.663.378 19.517.573 29.529.573 10.288 0 20.459-.23 30.469-.678-9.829 13.357-19.754 25.573-29.632 36.447zm130.935 30c-3.006 16.204-9.053 27.005-16.526 31.334-15.906 9.204-49.923-2.763-86.608-34.331a309.353 309.353 0 0 1-12.689-11.57c14.221-15.555 28.434-33.636 42.308-53.718 24.401-2.166 47.451-5.706 68.354-10.538a259.613 259.613 0 0 1 2.733 12.209c5.05 25.514 5.771 48.581 2.428 66.614zm18.301-107.689c-2.76.912-5.594 1.795-8.477 2.653-6.388-20.223-15.008-41.726-25.561-63.942 10.068-21.688 18.357-42.917 24.565-63.007a314.871 314.871 0 0 1 15.003 4.732c46.705 16.079 75.196 39.852 75.196 58.168.002 19.514-30.769 44.839-80.726 61.396z"/><path d="M256.617 210.251c24.893 0 45.071 20.177 45.071 45.069s-20.179 45.07-45.071 45.07c-24.89 0-45.069-20.178-45.069-45.07s20.18-45.069 45.069-45.069"/></svg>