<svg xmlns="http://www.w3.org/2000/svg" width="512" height="512" viewBox="-231.584 -231.584 512 512"><path d="M-67.729 110.44H2.025v16.085h-69.754v13.264h219.378v-13.264H70.328V110.44h90.444V73.691H-67.729zm-60.75-221.072h332.562v132.93h28.488v-161.427h-389.543v89.023h28.493z"/><path d="M-225.67 181.979h148.754V-41.164H-225.67v223.143zm77.516-11.202c-3.951 0-7.167-3.201-7.167-7.162 0-3.951 3.216-7.162 7.167-7.162 3.966 0 7.162 3.201 7.162 7.162s-3.196 7.162-7.162 7.162zm-56.005-190.435h105.752l-.01 164.629H-204.16V-19.658zM170.875 30.87v157.091h103.627V30.87H170.875zm53.914 6.492c1.239 0 2.261 1.04 2.261 2.26 0 1.241-1.021 2.281-2.261 2.281a2.291 2.291 0 0 1-2.28-2.281c0-1.24 1.019-2.26 2.28-2.26zm-13.454 7.542h26.867v2.171h-26.867v-2.171zm12.554 136.277c-2.98 0-5.361-2.422-5.361-5.382a5.349 5.349 0 0 1 5.361-5.361c2.961 0 5.382 2.4 5.382 5.361 0 2.96-2.421 5.382-5.382 5.382zm35.629-18.495c-24.256.13-61.616.229-73.639.13V54.797l73.639-.011v107.9z"/></svg>