<svg xmlns="http://www.w3.org/2000/svg" width="512" height="512"><path fill="#12100B" d="M438.733 282.226c-17.616.094-32.884 4.327-45.675 10.63-4.676-9.341-9.415-17.55-10.207-23.66-.929-7.132-2.006-11.385-.883-19.879 1.122-8.494 6.036-20.522 5.963-21.424-.074-.902-1.104-5.228-11.264-5.301s-18.857 1.952-19.879 4.639c-1.021 2.688-2.982 8.724-4.197 15.019-1.775 9.213-20.292 42.077-30.802 59.277-3.433-6.709-6.358-12.626-6.967-17.302-.93-7.132-2.006-11.385-.883-19.879 1.122-8.494 6.037-20.522 5.963-21.424-.073-.901-1.104-5.228-11.264-5.301-10.161-.074-18.856 1.952-19.879 4.639-1.021 2.688-2.117 8.955-4.196 15.019-2.08 6.065-26.688 60.888-33.131 75.097-3.285 7.243-6.139 13.059-8.164 17.025-.01-.009-.01-.019-.01-.019s-.12.267-.339.709c-1.73 3.377-2.752 5.255-2.752 5.255l.028.074c-1.371 2.484-2.834 4.785-3.562 4.785-.506 0-1.528-6.608.221-15.682 3.664-19.015 12.461-48.675 12.369-49.696-.046-.524 1.638-5.688-5.743-8.394-7.168-2.623-9.728 1.758-10.381 1.768-.635.008-1.104 1.546-1.104 1.546s7.988-33.352-15.241-33.352c-14.522 0-34.649 15.885-44.561 30.286a15516.239 15516.239 0 0 0-33.848 18.525c-5.458 3.001-11.026 6.066-16.299 8.973-.358-.395-.717-.791-1.086-1.187-28.17-30.048-80.241-51.307-78.032-91.708.801-14.688 5.908-53.358 100.055-100.276 77.121-38.431 138.864-27.857 149.531-4.418 15.24 33.481-32.992 95.721-113.086 104.694-30.519 3.424-46.587-8.402-50.581-12.811-4.206-4.638-4.831-4.849-6.405-3.975-2.56 1.417-.938 5.512 0 7.951 2.393 6.221 12.203 17.255 28.933 22.75 14.716 4.833 50.543 7.482 93.871-9.275 48.529-18.775 86.417-70.983 75.291-114.634-11.319-44.386-84.926-58.982-154.583-34.234-41.459 14.724-86.343 37.842-118.609 68.028-38.366 35.893-44.486 67.127-41.964 80.177 8.955 46.374 72.878 76.578 98.473 98.96a572.887 572.887 0 0 1-3.525 1.94c-12.829 6.351-61.558 31.844-73.743 58.79-13.823 30.563 2.199 52.484 12.811 55.438 32.874 9.147 66.602-7.308 84.732-34.346 18.122-27.029 15.912-62.23 7.593-78.299-.102-.203-.221-.396-.323-.59 3.313-1.96 6.69-3.956 10.041-5.917 6.534-3.838 12.938-7.408 18.506-10.437-3.11 8.532-5.393 18.756-6.58 33.518-1.389 17.349 5.715 39.766 15.02 48.593 4.095 3.883 9.028 3.976 12.147 3.976 10.823 0 15.765-9.01 21.204-19.658 6.671-13.067 12.59-28.271 12.59-28.271s-7.427 41.081 12.811 41.081c7.371 0 14.79-9.562 18.093-14.438.01.056.018.083.018.083s.193-.313.571-.957c.763-1.17 1.195-1.915 1.195-1.915s.02-.073.038-.211c2.963-5.146 9.534-16.879 19.399-36.232 12.737-25.004 24.959-56.322 24.959-56.322s1.141 7.656 4.858 20.32c2.191 7.454 6.849 15.682 10.51 23.588-2.954 4.104-4.767 6.45-4.767 6.45s.019.046.046.12a243.917 243.917 0 0 1-7.775 9.82c-10.05 11.973-22.032 25.648-23.634 29.597-1.887 4.647-1.444 8.07 2.209 10.822 2.668 2.007 7.417 2.319 12.369 1.988 9.036-.607 15.396-2.845 18.524-4.215 4.887-1.731 10.584-4.446 15.931-8.375 9.865-7.253 15.811-17.624 15.239-31.365-.313-7.573-2.732-15.074-5.787-22.16.893-1.288 1.793-2.586 2.695-3.902 15.554-22.731 27.608-47.708 27.608-47.708s1.142 7.657 4.86 20.32c1.887 6.405 5.604 13.399 8.945 20.256-14.624 11.881-23.688 25.686-26.836 34.742-5.816 16.749-1.261 24.331 7.289 26.063 3.874.781 9.341-.994 13.454-2.733 5.116-1.703 11.273-4.528 17.026-8.753 9.865-7.251 19.344-17.402 18.773-31.143-.257-6.259-1.96-12.46-4.261-18.425 12.396-5.163 28.438-8.034 48.878-5.649 43.842 5.116 52.447 32.495 50.8 43.953-1.647 11.457-10.841 17.752-13.915 19.658-3.073 1.904-4.012 2.558-3.755 3.975.377 2.053 1.795 1.979 4.417 1.537 3.607-.607 23.026-9.322 23.854-30.471 1.062-26.883-24.67-56.369-70.233-56.131zM100.788 396.162c-14.522 15.837-34.814 21.829-43.511 16.785-9.396-5.448-5.678-28.768 12.148-45.583 10.859-10.243 24.885-19.684 34.189-25.492 2.116-1.27 5.228-3.147 9.009-5.411.627-.358.986-.552.986-.552l-.02-.027c.727-.433 1.474-.885 2.247-1.345 6.478 23.929.193 44.995-15.048 61.625zm105.799-71.923c-5.062 12.332-15.646 43.88-22.088 42.187-5.53-1.454-8.899-25.427-1.104-49.033 3.92-11.881 12.303-26.072 17.228-31.584 7.924-8.863 16.658-11.771 18.773-8.174 2.707 4.574-9.636 38.874-12.809 46.604zm87.409 41.699c-2.145 1.123-4.114 1.822-5.024 1.278-.672-.395.883-1.876.883-1.876s10.934-11.762 15.241-17.118c2.502-3.11 5.41-6.811 8.577-10.942.026.414.036.818.036 1.225-.036 14.098-13.647 23.614-19.713 27.433zm67.338-15.342c-1.602-1.141-1.335-4.813 3.931-16.279 2.062-4.502 6.772-12.075 14.964-19.317.947 2.98 1.528 5.835 1.509 8.494-.111 17.725-12.756 24.351-20.404 27.102z"/></svg>